<svg xmlns="http://www.w3.org/2000/svg" viewBox="0 0 128 128" role="img" aria-labelledby="title desc">
  <title id="title">星火計畫火焰</title>
  <desc id="desc">向右上方延伸的橘金色火焰圖示</desc>
  <defs>
    <linearGradient id="outer" x1="28" y1="112" x2="102" y2="14" gradientUnits="userSpaceOnUse">
      <stop offset="0" stop-color="#ef6b3f"/>
      <stop offset="0.58" stop-color="#ff963f"/>
      <stop offset="1" stop-color="#ffd36a"/>
    </linearGradient>
    <linearGradient id="inner" x1="48" y1="108" x2="88" y2="48" gradientUnits="userSpaceOnUse">
      <stop offset="0" stop-color="#fff0a0"/>
      <stop offset="1" stop-color="#fffbdc"/>
    </linearGradient>
    <filter id="glow" x="-35%" y="-35%" width="170%" height="170%">
      <feGaussianBlur stdDeviation="3" result="blur"/>
      <feColorMatrix in="blur" type="matrix" values="1 0 0 0 0.98  0 1 0 0 0.42  0 0 1 0 0.12  0 0 0 .34 0"/>
      <feMerge><feMergeNode/><feMergeNode in="SourceGraphic"/></feMerge>
    </filter>
  </defs>
  <path d="M56 119C34 115 19 98 20 77c1-17 10-31 25-44C58 22 68 12 76 1c7 21 4 37-7 50 12-5 23-15 31-29 9 18 13 36 8 53-6 24-27 41-52 44Z" fill="url(#outer)" stroke="#3f327d" stroke-width="5" stroke-linejoin="round" filter="url(#glow)"/>
  <path d="M59 108c-13-3-22-13-21-26 1-10 6-18 15-26 7-6 13-12 18-20 4 12 2 22-4 30 7-3 13-8 18-15 5 10 7 20 4 30-4 15-16 25-30 27Z" fill="url(#inner)"/>
  <path d="M40 91c5 10 14 16 26 17" fill="none" stroke="#fff" stroke-width="4" stroke-linecap="round" opacity=".38"/>
</svg>
