<svg xmlns="http://www.w3.org/2000/svg" viewBox="0 0 1200 720" shape-rendering="crispEdges">
<defs><linearGradient id="n" x1="0" y1="0" x2="0" y2="1"><stop stop-color="#06091f"/><stop offset="1" stop-color="#101c39"/></linearGradient></defs><rect width="1200" height="720" fill="url(#n)"/>
<g fill="#fff"><rect x="94" y="90" width="4" height="4"/><rect x="185" y="148" width="5" height="5"/><rect x="349" y="78" width="3" height="3"/><rect x="487" y="128" width="4" height="4"/><rect x="692" y="64" width="5" height="5"/><rect x="814" y="116" width="4" height="4"/><rect x="1032" y="85" width="6" height="6"/><rect x="1104" y="171" width="3" height="3"/></g><g fill="#ffc95f"><rect x="271" y="110" width="6" height="6"/><rect x="930" y="143" width="7" height="7"/><rect x="757" y="189" width="5" height="5"/></g>
<path d="M0 466L128 346L245 421L390 289L540 430L691 322L835 423L998 302L1200 448V720H0Z" fill="#111e3c"/><path d="M0 548L170 440L304 508L465 395L628 521L804 414L958 505L1101 421L1200 489V720H0Z" fill="#09142e"/>
<g fill="#050b20"><path d="M75 536l32-84 32 84h-18l25 59H68l25-59z"/><path d="M982 510l38-102 38 102h-22l29 70h-91l29-70z"/><path d="M1085 552l30-80 30 80h-17l23 56h-73l23-56z"/></g>
<ellipse cx="700" cy="609" rx="188" ry="47" fill="#000" opacity=".28"/><g fill="#4b5369"><rect x="594" y="592" width="32" height="20"/><rect x="630" y="574" width="31" height="20"/><rect x="668" y="566" width="31" height="20"/><rect x="707" y="566" width="31" height="20"/><rect x="745" y="576" width="31" height="20"/><rect x="780" y="595" width="31" height="20"/><rect x="770" y="626" width="31" height="20"/><rect x="731" y="642" width="31" height="20"/><rect x="688" y="647" width="31" height="20"/><rect x="645" y="639" width="31" height="20"/><rect x="607" y="621" width="31" height="20"/></g>
<rect x="643" y="594" width="117" height="15" fill="#563b33" transform="rotate(16 701 602)"/><rect x="643" y="594" width="117" height="15" fill="#69443a" transform="rotate(-16 701 602)"/><rect x="675" y="587" width="63" height="12" fill="#312b2d"/>
<path d="M682 574L701 548L720 574" fill="none" stroke="#52617c" stroke-width="5" opacity=".45"/><rect x="30" y="30" width="1140" height="660" fill="none" stroke="#ffc95f" stroke-opacity=".1" stroke-width="3"/>
</svg>
