<svg xmlns="http://www.w3.org/2000/svg" viewBox="0 0 128 128" shape-rendering="crispEdges">
<rect width="128" height="128" rx="12" fill="#101032"/><rect x="5" y="5" width="118" height="118" rx="8" fill="none" stroke="#b694ff" stroke-opacity=".35" stroke-width="4"/>
<rect x="57" y="55" width="16" height="16" fill="#fff0a0"/><rect x="46" y="48" width="38" height="8" fill="#b694ff"/><rect x="38" y="40" width="16" height="8" fill="#765bd6"/><rect x="76" y="69" width="19" height="8" fill="#765bd6"/><rect x="30" y="63" width="30" height="8" fill="#8d75e8"/><rect x="84" y="47" width="17" height="8" fill="#8d75e8"/><rect x="45" y="78" width="36" height="8" fill="#624abf"/><rect x="27" y="79" width="14" height="7" fill="#4c3a9b"/><rect x="89" y="31" width="6" height="6" fill="#fff"/><rect x="23" y="31" width="5" height="5" fill="#ffc95f"/><rect x="101" y="87" width="5" height="5" fill="#78b7ff"/>
<path d="M23 66C30 31 91 24 104 56C115 84 68 108 34 91" fill="none" stroke="#b694ff" stroke-opacity=".55" stroke-width="4" stroke-dasharray="6 5"/>
</svg>
