<svg xmlns="http://www.w3.org/2000/svg" viewBox="0 0 128 128" shape-rendering="crispEdges">
<rect width="128" height="128" rx="12" fill="#081330"/><rect x="5" y="5" width="118" height="118" rx="8" fill="none" stroke="#78b7ff" stroke-opacity=".32" stroke-width="4"/>
<rect x="23" y="83" width="65" height="9" fill="#455d9b" transform="rotate(-25 55 87)"/><rect x="69" y="55" width="32" height="20" fill="#79b8ff" transform="rotate(-25 85 65)"/><rect x="86" y="47" width="18" height="20" fill="#c3ddff" transform="rotate(-25 95 57)"/><rect x="43" y="88" width="10" height="25" fill="#e2ae56"/><rect x="66" y="83" width="10" height="30" fill="#e2ae56"/>
<rect x="24" y="28" width="8" height="8" fill="#fff2a1"/><rect x="91" y="22" width="7" height="7" fill="#fff"/><rect x="104" y="35" width="4" height="4" fill="#78b7ff"/><rect x="43" y="19" width="4" height="4" fill="#fff"/><path d="M28 32L47 24L69 34L94 25" fill="none" stroke="#78b7ff" stroke-width="3" stroke-dasharray="3 4"/>
</svg>
