<svg xmlns="http://www.w3.org/2000/svg" viewBox="0 0 128 128" shape-rendering="crispEdges">
<rect width="128" height="128" rx="12" fill="#09102b"/><rect x="5" y="5" width="118" height="118" rx="8" fill="none" stroke="#ffc95f" stroke-opacity=".28" stroke-width="4"/>
<rect x="28" y="91" width="72" height="9" fill="#56311e"/><rect x="35" y="84" width="58" height="9" fill="#8c4b27" transform="rotate(15 64 89)"/><rect x="35" y="84" width="58" height="9" fill="#6d3b27" transform="rotate(-15 64 89)"/>
<rect x="55" y="35" width="18" height="48" fill="#ffad38"/><rect x="43" y="49" width="18" height="31" fill="#ef6d2f"/><rect x="67" y="52" width="18" height="28" fill="#ffd85d"/><rect x="57" y="20" width="13" height="26" fill="#fff1a0"/><rect x="48" y="60" width="33" height="23" fill="#fff3a1"/>
<rect x="20" y="28" width="5" height="5" fill="#ffe79a"/><rect x="98" y="39" width="6" height="6" fill="#ffc95f"/><rect x="88" y="20" width="4" height="4" fill="#fff"/><rect x="25" y="62" width="4" height="4" fill="#fff"/>
</svg>
